<?xml version="1.0" encoding="utf-8"?>
<!-- Generator: Adobe Illustrator 16.0.0, SVG Export Plug-In . SVG Version: 6.00 Build 0)  -->
<!DOCTYPE svg PUBLIC "-//W3C//DTD SVG 1.1//EN" "http://www.w3.org/Graphics/SVG/1.1/DTD/svg11.dtd">
<svg version="1.1" id="Layer_1" xmlns="http://www.w3.org/2000/svg" xmlns:xlink="http://www.w3.org/1999/xlink" x="0px" y="0px"
	 width="1023.872px" height="699.912px" viewBox="0 0 1023.872 699.912" enable-background="new 0 0 1023.872 699.912"
	 xml:space="preserve">
<g>
	<path fill-rule="evenodd" clip-rule="evenodd" fill="#4D4D4D" d="M1,131.983c3.552-1.063,7.147-2.011,10.61-3.312
		c0.519-0.194,0.951-2.587,0.505-3.021c-1.557-1.517-3.62-2.498-5.284-3.923c-1.047-0.898-2.345-2.201-2.395-3.371
		c-0.048-1.159,1.047-2.882,2.127-3.484c4.341-2.422,8.868-4.514,13.337-6.705c0.436-0.214,1.185-0.113,1.392-0.424
		c3.984-5.987,10.17-5.264,15.945-4.854c3.069,0.218,6.677,1.127,8.918,3.042c5.212,4.452,10.465,6.12,17.301,4.546
		c5.493-1.266,10.037,2.324,14.394,5.182c3.002,1.97,5.921,2.666,8.268-0.267c5.347-6.679,12.347-8.249,20.283-7.235
		c6.44,0.822,12.835,2.016,19.284,2.765c3.29,0.381,6.689,0.483,9.972,0.114c4.338-0.487,7.578,1.198,10.651,3.903
		c7.657,6.741,11.715,6.922,20.32,1.766c2.21-1.324,5.026-1.981,7.63-2.22c3.623-0.333,7.381,0.495,10.949-0.045
		c4.415-0.669,8.695-2.232,13.595-3.561c-0.244-3.554-0.602-6.806-0.62-10.061c-0.006-1.194,0.792-2.393,1.224-3.59
		c1.068,0.528,2.205,0.952,3.192,1.602c4.747,3.124,6.377,7.367,5.656,13.12c-0.55,4.393-1.558,9.201,2.716,13.005
		c0.656,0.584-0.648,5.251-1.624,5.471c-5.109,1.153-4.672,4.185-3.686,7.908c0.323,1.219,0.051,2.596,0.051,4.241
		c-6.585,0.122-10.006,3.631-11.643,9.764c-0.544,2.04-2.9,3.714-4.667,5.286c-5.513,4.904-6.315,16.084-1.299,20.813
		c0.779,0.733,2.024,1.582,2.937,1.466c5.3-0.68,7.939,3.594,11.604,5.929c3.487,2.223,6.932,4.511,10.395,6.77
		c0.698-0.444,1.395-0.887,2.092-1.332c1.008,6.799,2.017,13.599,3.086,20.803c1.618,0.22,3.332,0.454,4.541,0.619
		c1.521-2.666,3.188-4.625,3.747-6.862c0.471-1.882,0.147-4.318-0.687-6.106c-2.575-5.526-2.484-6.226,2.898-8.7
		c6.092-2.8,7.525-10.176,5.65-16.487c-1.926-6.482-1.455-13.677-2.171-22.2c3.492,0.829,5.663,1.176,7.715,1.871
		c3.01,1.018,5.883,2.448,8.91,3.401c3.672,1.157,6.168,2.978,7.093,7.095c0.894,3.978,2.602,7.782,4.077,11.615
		c0.515,1.335,1.403,2.527,2.121,3.784c0.856-1.123,1.892-2.155,2.524-3.393c0.738-1.445,0.936-3.17,1.699-4.597
		c2.739-5.122,3.764-5.489,7.722-1.613c1.927,1.888,3.35,4.693,4.069,7.336c2.167,7.966,3.811,16.072,5.871,24.07
		c0.191,0.741,1.855,1.438,2.902,1.551c1.724,0.187,3.5-0.12,5.638-0.24c-0.206,3.249,1.825,6.386-2.318,8.176
		c-0.552,0.239-0.896,2.542-0.416,3.318c2.037,3.287,4.144,6.614,6.76,9.431c2.4,2.586,1.432,4.144-1.145,4.427
		c-2.375,0.262-4.903-0.848-7.36-1.369c-1.335-0.283-2.724-0.441-3.98-0.934c-1.636-0.64-4.425-1.418-4.529-2.373
		c-0.55-5.076-5.162-5.403-8.1-6.478c-3.56-1.302-7.884-0.703-11.863-0.543c-1.133,0.045-2.213,1.427-3.318,2.195
		c1.14,0.622,2.225,1.405,3.436,1.817c1.063,0.362,2.268,0.311,4.063,0.516c0,2.026,0.158,3.992-0.033,5.923
		c-0.394,3.973,1.062,6.793,4.163,9.38c1.316,1.099,2.284,4.415,1.571,5.717c-1.035,1.893-3.594,3.481-5.784,3.988
		c-1.075,0.248-3.374-1.966-4.071-3.532c-1.262-2.836-2.887-2.479-4.604-1.093c-5.071,4.092-10.98,7.604-11.506,15.206
		c-0.041,0.589-1.017,1.085-1.493,1.677c-2.735,3.401-5.96,6.536-8.034,10.304c-2.337,4.246-5.529,5.406-11.438,4.301
		c1.067,3.418,1.508,5.977,2.638,8.182c1.703,3.325,0.475,9.286-3.198,12.478c-3.667,3.188-7.987,5.821-7.53,11.729
		c0.066,0.857-1.142,1.903-1.911,2.72c-4.816,5.106-4.761,8.251-1.693,14.763c1.409,2.991,0.813,6.926,1.125,10.432
		c-0.817,0.203-1.635,0.407-2.452,0.61c-1.856-4.259-4.407-8.37-5.37-12.823c-0.932-4.313-2.409-6.464-6.982-6.49
		c-7.29-0.041-14.577-0.441-21.865-0.671c-7.838-0.247-16.257,8.356-16.405,16.109c-0.078,4.098-1.854,8.186-1.788,12.259
		c0.058,3.536,0.852,7.551,2.728,10.442c2.466,3.801,5.884,7.377,9.687,9.808c3.573,2.284,6.049-1.351,8.147-3.976
		c1.984-2.481,3.683-5.209,5.823-7.538c0.904-0.984,2.616-1.226,3.961-1.805c0.15,1.606,1.027,3.701,0.33,4.739
		c-4.005,5.979-1.208,12.589-2.071,18.826c-0.429,3.104,1.701,2.823,3.944,1.637c1.86-0.982,4.954-2.67,5.802-1.974
		c2.909,2.388,6.127,5.34,7.236,8.729c1.23,3.762,0.221,8.239,0.282,12.403c0.106,7.27,4.043,9.521,10.471,6.324
		c0.886-0.44,2.959,0.358,3.834,1.232c4.642,4.64,5.23,4.764,9.821,0.205c2.096-2.08,3.971-4.383,6.055-6.477
		c2.482-2.493,5.235-3.782,8.925-2.319c1.79,0.708,3.981,0.342,5.869,0.884c3.193,0.918,6.284,2.189,9.431,3.275
		c1.882,0.649,4.54,2.347,5.561,1.659c6.207-4.176,9.118,1.319,12.277,4.259c2.536,2.36,3.834,6.128,5.437,9.392
		c1.596,3.253,7,5.234,10.151,3.482c4.851-2.697,12.995,1.688,13.42,7.351c0.237,3.147-0.193,6.357,0.173,9.48
		c0.594,5.072,1.595,10.096,2.55,15.902c2.758-0.722,4.403-1.222,6.078-1.574c3.861-0.813,7.642-1.953,11.198,1.383
		c1.054,0.989,3.531,1.079,5.169,0.724c8.214-1.785,12.323,3.182,15.059,9.461c1.496,3.435,2.929,2.707,6.161,0.894
		c0,7.226,0.772,14.078-0.311,20.624c-0.583,3.524-4.508,6.418-6.636,9.78c-3.48,5.502-7.649,10.691-7.637,17.793
		c0.015,8.32-0.229,16.643-0.497,24.96c-0.126,3.874-2.259,6.294-6.029,7.379c-1.02,0.293-1.901,1.108-2.81,1.736
		c-4.322,2.984-8.63,5.987-12.714,8.824c-0.906,3.358-1.714,6.877-2.706,10.371c-0.41,1.447,2.3,4.437-4.367,14.604
		c-0.873,0.964,0.474-1.715,1.313-4.375c0.603-1.911,0.953-3.477,0.953-3.477c-2.948,3.933-3.804,7.83-4.68,10.024
		c-1.423,3.563-2.224,7.397-3.869,10.839c-0.602,1.258-2.798,2.31-4.349,2.437c-13.939,0.083-5.055,5.778-5.055,5.778
		s1.972,10.688-0.218,14.138c-1.591,2.505-4.581,5.115-8.333,6.5s-5.559,1.386-7,3c-1.66,1.861-3.005,2.359-4.501,4.369
		c-0.796-0.058-0.128,4.594,0.491,7.104c0.472,1.914,0.706,4.277-0.014,5.998c-1.012,2.418-3.583,4.228-4.416,6.664
		c-0.819,2.396,1.221,5.875,2.439,8.865s-0.829,11.289-1.809,13.955c-0.806,2.193-1.784,5.89-0.73,6.92
		c0.539,2.292-0.767,5.699-1.396,8.354c-0.401,1.688-1.627,3.181-3.14,5.972c5.576-1.49,9.349-2.602,10.773,3.25
		c0.387,1.594,3.557,2.511,5.723,3.915c-8.41,7.174-13.141,3.177-17.484-3.216c-4.476-6.589-8.855-13.25-13.03-20.032
		c-0.979-1.589-1.26-3.778-1.343-5.714c-0.194-4.49,0.027-8.998-0.096-13.493c-0.276-10.048-0.272-20.003-1.695-30.116
		c-1.911-13.584-0.851-27.574-1.324-41.381c-0.107-3.131-2.079-6.303-1.789-9.322c0.583-6.096,1.562-12.286,3.463-18.081
		c1.449-4.418,2.123-8.036-0.227-12.366c-1.806-3.325-2.683-7.239-3.507-10.992c-1.302-5.932-3.744-10.862-7.861-15.634
		c-5.08-5.89-8.565-13.156-12.723-19.838c-0.839-1.348-1.697-2.695-2.381-4.123c-2.2-4.588-4.08-9.345-6.524-13.794
		c-5.226-9.513-2.69-19.688-2.709-29.604c-0.005-2.693,1.521-5.611,2.976-8.05c5.681-9.521,2.582-19.553,2.678-30.088
		c-2.531,0-4.48,0.003-6.429,0c-10.115-0.013-10.133-0.074-13.745-9.067c-3.433-8.548-9.349-15.031-17.175-19.733
		c-1.313-0.79-3.182-0.851-4.805-0.902c-10.39-0.328-19.764-4.441-28.084-9.79c-6.594-4.238-11.726-10.743-13.629-19.236
		c-1.104-4.924-3.537-9.614-5.794-14.201c-2.551-5.182-5.523-10.161-8.448-15.148c-0.491-0.838-1.667-1.276-2.931-2.192
		c-0.728,2.573-1.29,4.558-1.851,6.544c-0.442,0.23-0.884,0.461-1.326,0.691c-1.831-2.845-3.776-5.625-5.467-8.552
		c-2.406-4.163-4.838-8.332-6.878-12.678c-3.743-7.973-7.025-16.167-10.862-24.092c-2.13-4.401-3.277-8.519-2.202-13.548
		c2.088-9.769,4.938-19.709,4.761-29.529c-0.155-8.54-1.874-17.561-6.704-25.429c-2.066-3.366-2.819-7.509-4.491-11.151
		c-1.723-3.752-3.398-7.662-5.878-10.901c-4.525-5.91-8.975-12.199-14.708-16.752c-4.257-3.38-8.216-9.361-15.317-7.375
		c-3.955,1.106-7.83,2.505-11.719,3.836c-0.715,0.245-1.359,1.196-1.98,1.144c-8.167-0.685-12.605,5.095-17.529,10.006
		c-1.257,1.254-2.335,2.688-4.634,5.367c-1.483-3.773-2.682-6.241-3.418-8.841c-0.996-3.519-2.448-7.189-2.226-10.702
		c0.288-4.554,1.266-9.405,3.31-13.438C9.635,145.73,7.827,142.662,1,136.983C1,135.316,1,133.65,1,131.983z"/>
	<path fill-rule="evenodd" clip-rule="evenodd" fill="#4D4D4D" d="M488.446,181.423c-5.342-3.907-6.749-9.177-7.202-15.023
		c-0.382-4.912-3.643-6.233-7.781-3.696c-3.327,2.041-6.842,3.772-10.57,5.802c-0.534-1.063-1.458-2.053-1.466-3.049
		c-0.054-6.699-0.19-13.417,0.251-20.092c0.381-5.765,5.881-9.845,14.06-10.84c2.829-7.508,5.644-15.299,8.7-22.995
		c2.811-7.077,7.348-13.643,13.769-16.975c5.332-2.767,11.875-4.432,18.518-4.241c6.16,0.178,12.367-1.128,16.68,5.243
		c0.78,1.151,3.737,1.139,5.686,1.123c3.651-0.03,5.515,1.643,5.772,5.337c1.439,0.243,2.807,0.251,3.988,0.723
		c2.14,0.855,4.169,1.988,6.244,3.005c-1.334,2.305-2.166,5.283-4.128,6.749c-2.496,1.865-5.905,2.507-9.379,3.854
		c0,1.954-0.162,4.268,0.068,6.541c0.113,1.12,0.74,2.855,1.51,3.091c1.242,0.381,3.193,0.238,4.138-0.541
		c2.545-2.1,4.304-5.503,7.113-6.869c9.31-4.528,9.7-12.399,8.339-21.474c2.633,0,4.649,0,7.065,0c0,2.458-0.2,4.475,0.094,6.417
		c0.127,0.845,1.152,1.822,2.003,2.174c0.404,0.167,1.649-0.841,2.014-1.568c2.3-4.593,7.475-7.62,12.19-7.787
		c3.207-0.114,6.369-1.283,9.574-1.85c1.081-0.192,2.744-0.452,3.262,0.117c1.876,2.068,3.254,2.278,4.374-0.465
		c1.171-2.865,0.203-4.44-2.992-4.549c-0.43-0.015-0.844-0.496-1.268-0.764c2.732-3.444,8.966-3.126,13.854-0.085
		c4.081,2.538,7.918,6.353,15.065,4.784c-2.01-2.757-3.887-4.762-5.058-7.118c-0.974-1.962-2.187-4.847-1.429-6.433
		c2.35-4.917,5.442-9.512,8.589-13.991c0.732-1.044,2.916-1.71,4.246-1.48c0.97,0.168,2.2,2.029,2.345,3.25
		c1.156,9.746,2.293,19.504,2.989,29.29c0.352,4.955-0.404,9.979-0.27,14.961c0.046,1.663,1.303,3.293,2.006,4.939
		c0.771-1.437,1.813-2.796,2.248-4.329c0.579-2.039,0.426-4.292,1.047-6.311c1.611-5.244,4.786-8.295,11.248-5.918
		c0.107-0.566,0.216-1.133,0.323-1.699c-1.305-1.17-2.432-2.985-3.943-3.4c-7.822-2.146-8.746-3.103-9.049-11.346
		c-0.075-2.038-0.012-4.081-0.012-4.914c4.238-1.039,7.534-1.715,10.744-2.675c3.019-0.902,7.399,1.533,8.549,5.023
		c0.153,0.465,0.009,1.06,0.235,1.465c1.37,2.452,2.781,4.882,4.301,7.242c0.071,0.11,1.901-0.539,1.895-0.808
		c-0.085-3.074,0.367-6.457-0.779-9.136c-1.468-3.43-4.292-6.272-6.477-9.407c-1.782-2.558,0.934-5.87,5.587-6.694
		c1.756-0.312,3.567-0.313,5.816-0.494c-0.338-2.351-0.246-4.433-0.962-6.189c-1.983-4.869-0.152-7.588,5.201-8.296
		c5.237-0.692,10.372-2.814,15.578-2.918c5.139-0.104,8.817-0.96,12.42-5.172c4.02-4.701-0.874-6.556-2.391-7.392
		c-2.751-1.515-5.487-2.437-4.032-5.926c1.372-3.292,3.525-6.46,8.122-5.335c0.322,0.079,0.636,0.189,1.391,0.417
		c0.105,1.092,0.425,2.369,0.313,3.607c-0.3,3.348-0.393,6.169,2.893,8.721c1.842,1.43,2.66,4.841,2.933,7.465
		c0.355,3.423,1.89,4.137,4.876,3.882c3.652-0.313,7.412-0.952,10.974-0.427c7.628,1.125,9.052,4.583,5.72,11.453
		c-0.389,0.8,1.116,3.646,1.758,3.651c11.222,0.09,22.446-0.025,33.664-0.358c1.604-0.048,3.168-1.46,4.751-2.242
		c3.816,1.84,6.688,3.982,5.589,9.151c-0.262,1.233,2.2,3.248,3.693,4.584c1.165,1.042,2.71,2.01,4.2,2.233
		c1.297,0.193,2.848-0.522,4.123-1.162c1.691-0.847,3.118-2.597,4.849-2.912c3.413-0.618,6.955-0.655,10.445-0.673
		c3.531-0.019,6.147-1.196,8.508-4.004c0.983-1.171,3.754-1.377,5.605-1.149c2.641,0.324,5.189,1.428,7.762,2.243
		c2.979,0.944,5.89,2.167,8.927,2.834c2.392,0.526,4.933,0.58,7.399,0.517c5.485-0.141,10.965-0.635,16.449-0.715
		c9.252-0.134,17.532,2.733,23.403,10.025c2.876,3.573,5.676,2.381,8.188,1.063c3.712-1.948,6.533-1.36,10.408-0.032
		c5.191,1.779,11.119,3.41,16.508-0.8c1.126-0.88,3.234-0.408,4.83-0.803c2.811-0.695,5.57-1.599,8.365-2.366
		c0.628-0.173,1.371-0.348,1.958-0.175c6.165,1.817,12.376,3.512,18.433,5.641c4.018,1.413,7.781,3.53,11.701,5.237
		c4.365,1.9,8.704,3.91,13.2,5.446c2.458,0.84,5.274,0.574,7.817,1.238c1.589,0.415,2.966,1.635,5.813,3.293
		c-10.499,2.965-1.166,11.447-6.637,15.323c-8.304-3.655-13.506-12.411-22.025-14.295c-2.894,3.597-5.06,6.31-7.246,9.005
		c-1.53,1.886-1.396,2.989,1.127,3.987c1.886,0.746,3.716,2.127,5.002,3.693c0.617,0.752,0.311,2.794-0.266,3.89
		c-1.326,2.521-3.076,4.819-4.645,7.214c-0.18,0.274-0.228,0.704-0.468,0.858c-6.824,4.392-13.599,8.871-20.568,13.021
		c-1.218,0.725-3.313,0.271-4.931-0.03c-4.364-0.813-7.12,0.663-7.585,5.103c-0.557,5.313-1.459,10.496,1.688,15.849
		c3.263,5.549,0.317,11.733-2.963,16.107c-3.145,4.193-5.1,8.089-4.302,14.056c-4.69-1.498-7.348-3.83-7.797-7.844
		c-0.385-3.443-0.096-6.975,0.054-10.459c0.166-3.875-0.889-6.937-4.247-9.344c-6.439-4.614-5.68-11.204-0.354-16.548
		c4.365-4.38,8.035-9.47,11.821-14.394c0.757-0.983,0.643-2.636,1.002-4.316c-3.425-0.415-5.952-1.021-7.086,2.952
		c-0.349,1.219-3.308,2.964-3.987,2.575c-1.892-1.083-3.215-3.16-5.61-5.768c-3.165-0.743-5.31,1.912-7.273,5.407
		c-2.334,4.152-4.814,8.269-7.683,12.059c-3.021,3.989-9.083,4.403-13.466,2.408c-7.794-3.548-15.792-2.715-23.908-0.415
		c-12.2,3.458-10.791,14.763-15.048,23.538c2.051,0.159,3.182,0.326,4.313,0.321c6.652-0.031,8.218,1.712,9.19,8.107
		c0.619,4.073,1.882,8.257,3.816,11.878c4.029,7.542,2.565,14.868,0.343,22.347c-0.908,3.057-1.045,6.699-2.857,9.056
		c-3.438,4.472-7.768,8.277-11.848,12.234c-5.201,5.044-10.826,10.489-9.08,18.172c1.269,5.583,5.305,10.561,8.319,15.685
		c0.253,0.43,2.498,0.343,3.181-0.244c4.022-3.463,8.337-5.871,13.82-6.332c1.588-0.134,3.158-2.145,4.468-3.545
		c2.358-2.521,4.552-4.585,8.532-4.708c4.849-0.149,7.189-9.61,4.12-14.126c-1.841-2.708-2.994-5.929-4.137-9.038
		c-0.313-0.854,0.272-2.305,0.877-3.186c3.09-4.502,3.246-9.559,0.55-14.096c-2.174-3.657-2.513-7.333,0.238-11.078
		c1.652-2.249,2.555-4.489-0.442-7.062c-1.834-1.574-2.405-4.607-3.572-6.971c-1.852-3.748-4.33-7.324-5.371-11.282
		c-0.644-2.45,0.881-5.47,1.432-8.234c0.815-0.031,1.631-0.063,2.446-0.094c0.795,2.892,1.401,5.855,2.45,8.652
		c0.682,1.813,1.787,3.588,3.101,5.012c2.292,2.487,5.008,4.58,7.334,7.038c3.41,3.606-1.799,5.326-2.681,6.095
		c-3.485,3.046-2,5.381-0.53,8.337c1.059,2.128,2.666,4.761,2.194,6.729c-1.436,5.996,3.145,7.987,6.505,10.269
		c2.002,1.359,5.392,1.621,4.431,4.601c-0.518,1.605-3.688,2.393-5.712,3.452c-0.552,0.288-1.288,0.224-2.048,0.338
		c-0.732,1.633-1.159,3.493-2.243,4.815c-2.231,2.721-1.301,3.662,1.522,5.028c1.392,0.672,2.2,3.164,2.672,4.987
		c0.901,3.483,1.581,7.058,1.915,10.635c0.118,1.264-0.677,3.268-1.688,3.866c-3.876,2.296-8.277,3.766-11.984,6.279
		c-5.36,3.637-11.246,2.432-16.996,3.102c-4.171,0.486-8.709,1.614-8.817,7.556c-0.02,1.051-1.28,2.079-1.969,3.117
		c-0.868-0.617-1.798-1.166-2.589-1.871c-0.819-0.731-1.361-1.911-2.284-2.353c-1.19-0.57-2.742-1.042-3.947-0.755
		c-1.462,0.349-2.725,1.533-4.073,2.355c-0.497-1.657-0.857-3.37-1.514-4.961c-2.774-6.72-5.572-13.434-8.562-20.06
		c-0.315-0.7-1.918-1.007-2.971-1.146c-1.81-0.238-3.661-0.138-5.484-0.29c-5.244-0.439-9.037,2.247-9.588,7.246
		c-0.111,1.009,1.126,3.014,1.952,3.135c3.758,0.553,4.143,2.387,3.146,5.599c-1.657,5.341,3.453,8.275,4.932,12.559
		c1.645,4.765,5.166,8.991,6.214,13.813c0.639,2.939-1.42,6.782-3.021,9.823c-3.19,6.063-7.37,11.638-10.212,17.841
		c-1.565,3.416-3.423,4.213-6.698,4.507c-2.174,0.195-4.996,0.969-6.222,2.519c-4.263,5.389-10.115,2.406-15.129,3.561
		c-1.124,1.74-2.491,3.377-3.282,5.257c-0.513,1.22-0.749,3.125-0.144,4.157c4.303,7.337,8.936,14.479,13.306,21.78
		c4.597,7.682-2.365,18.222-11.158,18.513c-3.591-4.346-6.947-8.097-9.89-12.146c-0.959-1.319-0.841-3.421-1.229-5.229
		c-3.204-1.613-7.599,2.971-9.702-1.16c-1.564-3.071-1.38-7.033-2.094-11.311c-9.01,3.077-11.6-4.197-15.323-9.548
		c-1.64-2.356-3.167-4.987-3.909-7.721c-1.054-3.877-3.682-3.991-6.44-3.184c-2.908,0.851-6.274,1.786-8.259,3.83
		c-6.241,6.424-11.956,13.362-17.778,20.182c-0.565,0.66-0.732,1.912-0.639,2.845c0.669,6.616-0.67,12.695-2.907,19.03
		c-1.655,4.689-4.999,7.1-8.075,10.037c-0.698,0.667-4.18-0.006-4.593-0.894c-1.618-3.476-2.54-7.279-3.684-10.972
		c-1.611-5.204-3.388-10.37-4.733-15.644c-1.563-6.129-3.075-12.309-3.963-18.558c-0.6-4.211-1.843-6.822-6.534-6.734
		c-6.163,0.115-4.642-5.907-6.846-8.937c-1.822-2.505-2.554-5.848-4.528-8.177c-0.961-1.133-3.649-1.037-5.565-1.083
		c-7.97-0.19-15.946-0.12-23.911-0.398c-1.595-0.056-3.178-1.157-4.72-1.875c-3.71-1.729-7.521-3.299-11.036-5.368
		c-1.881-1.105-4.012-2.836-4.685-4.756c-2.588-7.387-8.19-5.537-13.369-5.215c-2.788,5.805,0.641,10.494,2.194,15.429
		c0.164,0.521,1.444,0.602,2.041,1.087c3.074,2.502,6.835,4.573,8.958,7.732c3.07,4.569,6.486,5.701,10.974,2.063
		c1.852-1.501,3.722-2.976,4.746-3.794c3.528,2.227,6.653,3.578,8.898,5.813c1.819,1.812,4.264,2.768,3.086,7.611
		c-2.416,9.943-9.172,15.462-15.798,21.73c-5.065,4.793-9.513,10.243-14.647,14.95c-2.257,2.07-5.415,3.4-8.391,4.372
		c-2.839,0.926-9.519-5.043-10.325-8.83c-1.053-4.939-1.688-9.995-3.12-14.816c-0.614-2.071-2.437-4.25-4.313-5.386
		c-4.071-2.466-7.532-4.549-7.554-10.355c-0.019-4.905-1.778-9.801-2.762-14.703c-0.098-0.485,0.015-1.238-0.267-1.428
		c-3.844-2.589-7.741-5.101-11.624-7.632c-0.494,0.424-0.989,0.848-1.483,1.271c0.974,2.634,2.2,5.207,2.855,7.918
		c0.822,3.395,1.909,6.988,1.524,10.339c-0.395,3.433-0.209,6.055,2.498,8.269c7.548,6.169,10.897,14.977,14.916,23.417
		c1.76,3.695,4.536,6.898,6.403,10.552c1.746,3.417,2.809,7.178,4.362,10.703c0.647,1.47,1.654,3.717,2.734,3.863
		c2.229,0.301,5.941,0.204,6.706-1.101c2.801-4.774,8.409-4.243,12.001-7.284c0.593-0.501,3.109,0.049,3.471,0.758
		c0.681,1.335,1.017,3.368,0.484,4.711c-3.548,8.964-7.053,17.973-11.227,26.651c-1.962,4.081-5.45,7.409-8.088,11.19
		c-0.876,1.257-1.253,2.86-2.032,4.721c-3.763-0.042-5.158,3.146-7.146,6.913c-6.413,12.166-6.181,25.032-4.92,37.964
		c0.469,4.816,2.375,9.666,4.462,14.107c2.604,5.536-1.666,8.697-3.742,12.301c-3.015,5.231-7.574,9.571-10.603,14.796
		c-1.563,2.7-1.558,6.478-1.702,9.793c-0.236,5.458-0.551,10.408-4.804,14.922c-2.493,2.646-2.55,7.46-4.135,11.111
		c-3.616,8.322-6.618,17.102-11.506,24.633c-5.414,8.342-13.133,9.577-22.596,6.076c-1.198-0.444-2.739,0.019-3.921-0.448
		c-1.382-0.547-3.489-1.5-3.655-2.537c-1.387-8.653-7.468-15.874-7.026-25.196c0.224-4.722-1.59-9.555-2.62-14.307
		c-0.173-0.802-1.275-1.374-1.552-2.187c-0.925-2.713-4.52-4.453-1.803-8.633c1.048-1.609-0.968-6.493-2.962-8.554
		c-5.482-5.664-5.13-10.665-3.113-18.253c2.077-7.808,3.82-17.183-0.935-25.566c-0.908-1.602-0.966-3.813-1.005-5.753
		c-0.106-5.328,0.313-10.688-0.121-15.981c-0.177-2.147-1.559-5.396-3.197-6.016c-7.245-2.735-7.962-8.549-8.02-14.823
		c-0.039-4.16,0.171-8.327,0.422-12.482c0.276-4.565-1.766-6.263-6.243-5.815c-4.234,0.423-8.701,0.8-8.924-5.655
		c-4.48-0.979-8.063,0.158-12.211,1.94c-8.018,3.446-16.773,4.035-25.608,3.861c-5.703-0.113-9.206-2.034-11.259-7.352
		c-0.706-1.829-2.648-3.164-3.946-4.788c-0.692-0.865-1.831-1.955-1.713-2.795c0.711-5.029-3.058-7.503-5.518-10.884
		c-3.752-5.157-6.956-10.714-10.607-16.438c2.834-0.81,4.728-1.351,7.985-2.281c-0.999-4.569-2.725-9.177-2.854-13.83
		c-0.188-6.75-0.088-13.737,1.454-20.253c2.386-10.087,9.665-17.274,16.835-24.426c1.501-1.497,1.519-4.917,1.475-7.438
		c-0.095-5.44,1.708-9.903,6.949-11.5c4-1.218,4.474-3.669,4.344-7.747c2.154,0,4.104-0.056,6.05,0.011
		c6.587,0.224,11.854-2.766,16.913-6.565c1.509-1.133,3.578-1.832,5.473-2.073c4.923-0.625,10.141,1.035,14.633-2.802
		c1.17-1,3.745-0.355,6.795-0.531c-1.938,6.31-3.584,11.677-5.511,17.953c2.667,0,4.815,0.345,6.812-0.061
		c8.578-1.74,11.822,5.771,17.099,9.697c1.35,1.003,2.085,2.813,3.403,3.881c0.866,0.702,2.498,1.293,3.378,0.933
		c1.139-0.466,2.276-1.793,2.678-2.996c0.508-1.521-0.059-3.398,0.436-4.929c0.938-2.909,3.663-5.486,6.074-3.289
		c4.637,4.224,10.201,1.869,15.061,3.534c4.032,1.382,8.067,2.758,12.096,4.154c0.871,0.302,1.802,1.057,2.556,0.897
		c0.697-0.147,1.106-1.352,1.794-1.899c5.168-4.113,8.372-9.097,5.982-15.851c-0.44-1.245-3.124-1.697-5.019-2.637
		c1.813-1.959,3.424-3.701,5.036-5.444c-0.208-0.466-0.415-0.931-0.623-1.396c-3.907,0-7.814,0-11.722,0
		c-7.018-0.001-9.905-2.494-11.054-9.167c-0.4-2.321-1.436-4.527-1.978-6.832c-0.205-0.872-0.165-2.463,0.319-2.733
		c5.142-2.873,8.54-9.69,15.923-7.561c4.435,1.279,8.886,2.691,13.061,4.625c3.18,1.474,5.839,2.741,8.307-0.81
		c0.095-0.137,0.134-0.345,0.259-0.421c5.467-3.347,6.287-5.227,4.591-11.081c-0.237-0.817-1.027-2.087-1.59-2.103
		c-6.079-0.168-10.948-3.365-16.061-6.026c-0.754-0.392-1.95-0.161-2.879,0.054c-4.791,1.111-7.107-1.587-8.486-5.538
		c-1.071-3.067-7.155-4.946-8.774-2.21c-2.672,4.517-4.491,9.571-6.325,14.526c-0.396,1.068,0.432,2.815,1.112,4.012
		c2.27,3.99,1.061,6.438-3.685,7.098c-7.646,1.062-8.083,1.673-6.816,9.557c0.906,5.637,0.212,7.382-3.951,8.71
		c-2.008-4.635-3.768-9.464-6.15-13.965c-1.946-3.675-4.38-7.17-7.062-10.356c-3.017-3.585-6.489-6.802-9.908-10.026
		c-0.809-0.762-2.193-0.914-3.312-1.347c-0.374,1.146-1.411,2.652-1.016,3.379c2.827,5.194,1.941,11.872,7.652,16.071
		c5.463,4.016,5.095,16.195-0.005,20.49c-0.551,0.465-2.898-0.247-3.513-1.078c-0.653-0.882-0.605-2.676-0.224-3.869
		c1.951-6.101-0.627-10.758-4.315-15.243c-0.875-1.065-1.252-2.601-1.655-3.979c-0.99-3.382-1.863-6.798-3.092-11.34
		c-6.336,5.798-12.71,5.984-18.939,6.946c-2.027,0.313-4.818,1.759-5.53,3.425c-2.68,6.261-4.647,12.827-6.876,19.279
		c-1.781,5.155-8.293,10.243-13.808,10.402c-3.293,0.095-6.613-0.268-9.897-0.639c-0.759-0.086-1.947-0.963-2.046-1.613
		c-0.941-6.11-4.667-11.994-0.842-18.552c0.928-1.589-0.039-4.833-1.033-6.88c-2.048-4.219-0.912-6.535,3.859-6.743
		c4.153-0.182,8.338-0.174,12.445-0.726c5.481-0.737,7.041-5.397,4.066-10.175c-1.854-2.976-3.728-6.296-4.25-9.668
		c-0.889-5.748,1.706-8.038,7.46-8.985c2.16-0.355,4.634-1.619,6.034-3.262c4.439-5.213,8.405-10.829,12.645-16.216
		c0.644-0.818,1.7-1.595,2.692-1.812C478.55,188.792,478.557,188.821,488.446,181.423z M520.949,151.733
		c-2.221-0.54-2.694-0.66-3.169-0.771c-3.08-0.72-6.144-1.524-9.245-2.136c-4.9-0.967-3.17-5.067-3.931-8.005
		c-0.121-0.466-0.323-0.985-0.654-1.31c-2.683-2.617-0.829-3.452,1.534-4.432c3.639-1.508,5.301-4.508,5.547-8.351
		c0.205-3.186-0.811-5.033-4.506-4.748c-4.334,0.333-8.041,3.902-8.682,8.329c-0.197,1.361-1.206,2.81-2.238,3.81
		c-4.254,4.121-4.792,11.044-1.958,16.61c1.865,3.663,2.747,7.865,3.741,11.906c0.241,0.98-0.765,2.301-1.276,3.427
		c-2.375,5.226-5.682,10.225-3.881,17.015c4.766-1.127,9.462-2.066,14.011-3.478c0.78-0.242,1.247-2.482,1.318-3.829
		c0.183-3.425,0.062-6.867,0.062-10.833c5.846,1.509,5.7-2.471,7.147-5.302C516.138,156.959,518.495,154.787,520.949,151.733z"/>
	<path fill-rule="evenodd" clip-rule="evenodd" fill="#4D4D4D" d="M279.086,32.846c0.057-0.921-0.188-2.525,0.306-3.854
		c1.322-3.548,2.26-7.132,7.661-7.094c3.233,0.022,6.566-2.143,9.7-3.647c2.549-1.222,4.735-3.272,7.342-4.28
		c1.478-0.572,3.5,0.117,5.235,0.45c0.492,0.094,0.742,1.129,1.272,1.399c3.108,1.586,15.609-2.153,17.099-5.379
		c2.301-4.984,5.742-6.046,11.162-5.834c6.358,0.249,12.792-1.423,19.192-2.257c0.495-0.064,1.019-0.216,1.487-0.122
		c9.127,1.859,19.162,0.948,26.493,8.269c0.829,0.828,0.455,3.034,0.351,4.583c-0.159,2.377-0.567,4.738-0.87,7.105
		c2.407-0.426,5.439-0.075,7.108-1.417c5.705-4.587,12.067-4.534,18.652-3.756c2.735,0.323,3.006,1.877,1.079,3.658
		c-1.521,1.405-3.191,2.675-4.911,3.835c-7.303,4.924-12.114,11.672-13.551,20.294c-0.413,2.479,1.61,5.364,2.541,8.138
		c-3.257,2.464-5.137,9.624-1.984,13c4.405,4.718-0.396,6.286-2.126,8.524c-2.604,3.373-6.093,6.051-8.91,9.282
		c-0.583,0.668-0.343,2.824,0.314,3.683c6.033,7.873,5.121,10.153-3.59,14.498c-5.734,2.861-11.176,5.515-17.73,5.409
		c-1.053-0.018-2.497,1.312-3.136,2.39c-4,6.736-7.902,13.014-16.203,15.882c-6.821,2.357-8.309,9.436-7.507,15.785
		c1.053,8.345-5.307,11.307-9.899,15.204c-3.427,2.908-13.579-4.176-14.915-8.561c-2.139-7.022-2.89-14.431-7.138-21.005
		c-2.036-3.152-1.746-8.664-0.77-12.685c1.185-4.882,3.972-9.45,6.497-13.911c2.628-4.641,2.012-8.439-2.917-10.6
		c-4.634-2.031-7.156-4.903-6.332-10.123c1.735-10.986-3.507-19.038-12.114-24.388c-3.213-1.998-8.697-0.805-13.065-0.328
		c-3.115,0.34-6.033,2.257-9.156,2.825c-2.431,0.442-4.138-3.083-2.465-5.062c1.719-2.035,2.096-3.107-0.268-5.208
		c-3.092-2.749-1.106-7.828,3.686-9.803c1.934-0.797,4.294-0.529,6.271-1.259C274.868,35.786,276.511,34.42,279.086,32.846z"/>
	<path fill-rule="evenodd" clip-rule="evenodd" fill="#4D4D4D" d="M854.04,468.043c5.548-0.515,9.802-1.263,14.045-1.21
		c4.818,0.06,9.76-0.187,14.043,3.162c1.906,1.49,3.734,2.012,1.537,4.785c-0.765,0.965-0.876,3.765-0.146,4.382
		c4.71,3.983,9.573,7.842,14.731,11.213c2.28,1.488,5.959-2.075,5.932-5.501c-0.036-4.659-0.446-9.326-0.25-13.972
		c0.086-2.031,1.275-4.018,1.964-6.024c1.91,1.786,4.501,3.237,5.583,5.433c1.959,3.973,3.703,8.297,4.29,12.644
		c0.88,6.503,6.371,8.714,9.911,12.798c2.436,2.813,5.375,6.52,5.371,9.823c-0.008,6,4.048,8.705,7.171,12.225
		c5.988,6.749,5.187,14.419,3.346,22.78c-2.643,11.997-12.861,19.017-16.369,30.205c-1.81,5.77-8.135,8.674-13.685,10.745
		c-4.289,1.602-9.12,2.012-13.751,2.313c-1.972,0.128-4.7-0.804-5.959-2.24c-4.08-4.655-11.133-7.236-10.707-15.478
		c-5.005,1.326-7.54,0.442-9.827-4.904c-3.891-9.102-10.178-10.625-18.624-9.169c-2.801,0.482-5.625,2.344-7.873,4.243
		c-7.079,5.982-14.484,10.565-24.272,10.729c-3.226,0.054-6.359,2.711-9.632,3.908c-2.138,0.782-5.105,2.175-6.531,1.327
		c-2.002-1.188-3.758-4.08-4.115-6.469c-0.633-4.231,0.17-8.657-0.197-12.953c-0.329-3.856-1.548-7.629-2.128-11.476
		c-0.318-2.107-0.359-4.319-0.121-6.438c0.66-5.831,1.817-11.616,2.246-17.459c0.44-5.998,2.955-8.563,9.041-8.557
		c3.811,0.003,7.669-0.097,11.412-0.715c1.711-0.282,3.898-1.567,4.645-3.024c1.748-3.419,2.435-7.378,4.171-10.805
		c1.328-2.618,3.29-5.13,5.528-7.032c4.974-4.228,9.896-8.76,17.428-7.586c1.812,0.281,5.444-0.824,5.51-1.54
		c0.205-2.247-0.852-4.625-1.514-6.926C856.078,470.709,855.559,470.241,854.04,468.043z"/>
	<path fill-rule="evenodd" clip-rule="evenodd" fill="#4D4D4D" d="M869.991,416.848c1.925,3.217,2.761,5.122,4.063,6.621
		c0.958,1.103,2.474,2.25,3.832,2.372c3.287,0.297,6.659-0.31,9.94,0.017c7.596,0.756,15.313,1.22,22.675,3.045
		c4.29,1.063,7.751,5.152,12.009,6.749c5.466,2.048,5.738,5.968,6.628,10.745c0.606,3.255,4.137,5.937,6.235,8.96
		c0.658,0.947,0.913,2.175,1.354,3.274c-1.318,0.405-3.146,1.562-3.859,1.077c-2.174-1.475-4.464-3.283-5.69-5.519
		c-1.546-2.821-7.405-8.389-10.335-8.409c-0.68-0.005-1.519,0.44-2.017,0.943c-1.499,1.515-2.731,4.333-4.316,4.518
		c-3.541,0.412-7.385,0.049-10.814-0.976c-2.688-0.804-4.952-3.053-7.376-4.703c-0.79-0.538-2.145-1.237-2.124-1.824
		c0.193-5.563-4.756-5.658-7.862-6.848c-7.068-2.707-10.02-9.458-15.021-14.141C866.923,422.387,868.613,419.802,869.991,416.848z"
		/>
	<path fill-rule="evenodd" clip-rule="evenodd" fill="#4D4D4D" d="M796.685,419.395c-1.103-0.294-2.195-0.309-2.918-0.833
		c-1.883-1.367-3.604-2.957-5.39-4.458c1.489-1.271,3.152-2.391,4.438-3.845c3.41-3.858,6.627-7.888,9.984-11.796
		c1.585-1.846,3.084-3.899,5.041-5.254c1.789-1.236,4.785-2.865,6.098-2.164c2.08,1.11,4.316,3.914,4.528,6.185
		c0.803,8.61,0.521,16.912-4.531,24.917c-4.815,7.631-4.542,8.287-11.764,8.116c-4.146-0.098-5.688-1.749-5.293-5.75
		C797.037,422.895,796.768,421.233,796.685,419.395z"/>
	<path fill-rule="evenodd" clip-rule="evenodd" fill="#4D4D4D" d="M587.925,524.926c1.762-4.135,3.756-8.557,5.5-13.075
		c0.488-1.264,0.884-3.415,0.218-4.128c-3.385-3.622-1.55-6.507,0.783-9.477c2.925-3.725,5.752-7.534,8.851-11.107
		c1.044-1.203,3.073-2.741,4.149-2.424c1.324,0.391,2.756,2.443,3.043,3.982c1.367,7.32-0.055,14.286-3.3,20.973
		c-1.017,2.096-1.897,4.434-2.087,6.723c-0.688,8.324-4.192,15.449-8.831,22.141c-1.729,2.495-3.49,1.79-4.362-0.604
		C590.474,534.05,589.453,530.029,587.925,524.926z"/>
	<path fill-rule="evenodd" clip-rule="evenodd" fill="#4D4D4D" d="M752.186,399.51c2.941,2.413,5.655,4.713,8.459,6.897
		c0.83,0.647,1.914,0.97,2.883,1.44c0.495-1.098,1.32-2.168,1.414-3.3c0.178-2.134-0.328-4.337-0.043-6.443
		c0.194-1.431,1.254-2.744,1.925-4.11c1.012,0.85,2.572,1.513,2.935,2.582c1.181,3.484,1.898,7.123,2.843,10.69
		c0.729,2.754,1.741,5.45,2.249,8.242c0.783,4.306,2.85,8.771-1.421,12.693c-0.849,0.78-0.736,2.776-0.786,4.22
		c-0.108,3.102-0.033,6.209-0.033,9.313c-0.411,0.148-0.822,0.297-1.233,0.445c-1.901-3.803-4.743-7.425-5.516-11.445
		c-1.882-9.786-8.85-16.331-13.979-24.036C750.278,404.289,748.903,402.416,752.186,399.51z"/>
	<path fill-rule="evenodd" clip-rule="evenodd" fill="#4D4D4D" d="M430.319,166.561c4.078,2.436,6.175,5.573,6.858,10.771
		c0.514,3.914,4.126,7.541,6.712,11.035c4.728,6.391,5.297,11.509,1.306,17.819c-0.509,0.804-2.28,1.751-2.775,1.461
		c-2.519-1.485-5.201-3.044-6.979-5.257c-0.648-0.808,0.675-3.754,1.748-5.264c1.756-2.472,1.686-7.681-1.078-10.141
		C429.775,181.341,427.112,174.817,430.319,166.561z"/>
	<path fill-rule="evenodd" clip-rule="evenodd" fill="#4D4D4D" d="M978.305,612.585c2.401-1.713,5.063-4.003,8.069-5.671
		c5.62-3.118,9.685-7.558,12.871-13.051c0.648-1.119,3.164-2.501,3.562-2.184c1.534,1.223,2.876,2.959,3.604,4.777
		c0.256,0.638-1.47,2.057-2.271,3.133c-1.887,2.534-4.334,4.835-5.525,7.664c-2.619,6.211-7.924,8.561-13.606,10.253
		C981.978,618.41,979.02,617.501,978.305,612.585z"/>
	<path fill-rule="evenodd" clip-rule="evenodd" fill="#4D4D4D" d="M402.269,120.188c1.194,3.352,4.832,7.416,0.5,12.001
		c-0.303,0.32-0.283,1.197-0.549,1.264c-4.618,1.142-9.232,2.75-13.907,2.967c-1.598,0.074-3.391-3.361-5.018-5.259
		c-0.266-0.312-0.067-0.983-0.19-1.459c-1.745-6.756-1.731-6.394,5.335-6.764C392.949,122.701,397.391,121.205,402.269,120.188z"/>
	<path fill-rule="evenodd" clip-rule="evenodd" fill="#4D4D4D" d="M415.809,201.913c-2.202-8.98,0.487-14.353,9.028-18.373
		c2.779-1.309,3.656,0.931,3.812,2.931c0.27,3.461,0.941,7.27-0.183,10.336c-0.845,2.307-4.021,4.163-6.569,5.299
		C420.184,202.871,417.754,202.027,415.809,201.913z"/>
	<path fill-rule="evenodd" clip-rule="evenodd" fill="#4D4D4D" d="M588.343,60.673c2.502-2.595,4.717-5.933,7.808-7.869
		c5.265-3.296,11.058-5.759,16.692-8.438c0.696-0.331,2.174-0.163,2.574,0.341c0.409,0.515,0.071,1.769-0.174,2.632
		c-1.301,4.589-5.15,6.502-8.938,8.581c-4.535,2.489-8.917,5.255-13.411,7.821c-0.874,0.499-2.309,1.162-2.862,0.799
		C589.281,64.051,589.132,62.642,588.343,60.673z"/>
	<path fill-rule="evenodd" clip-rule="evenodd" fill="#4D4D4D" d="M588.442,89.392c-2.561-0.725-5.707-1.682-5.448-5.953
		c0.253-4.153-1.082-8.759,2.96-11.962c0.672-0.532,1.708-1.228,2.326-1.037c0.676,0.209,1.293,1.291,1.532,2.111
		c1.119,3.829,2.16,7.683,3.107,11.558C593.681,87.221,592.797,89.322,588.442,89.392z"/>
	<path fill-rule="evenodd" clip-rule="evenodd" fill="#4D4D4D" d="M1013.817,590.203c0-4.425-0.187-8.864,0.136-13.266
		c0.077-1.064,1.703-2.635,2.847-2.872c2.205-0.459,4.574-0.135,7.305-0.135c2.061,8.685-7.35,10.522-8.854,16.726
		C1014.773,590.505,1014.296,590.354,1013.817,590.203z"/>
	<path fill-rule="evenodd" clip-rule="evenodd" fill="#4D4D4D" d="M805.805,453.486c-7.008,2.664-14.083,0.175-18.591-6.283
		C794.454,444.349,801.948,446.802,805.805,453.486z"/>
</g>
</svg>
